<svg class="SVGInline-svg" xmlns="http://www.w3.org/2000/svg" xmlns:xlink="http://www.w3.org/1999/xlink" viewBox="0 0 50 50" version="1.1" fill="#000000"><g id="surface1" fill="#000000"><path style=" " d="M 18 3.980469 L 10 8.4375 L 10 16.546875 L 3 20.410156 L 3 29.589844 L 10 33.464844 L 10 41.59375 L 18.015625 45.96875 L 24.996094 42.140625 L 32 46.015625 L 40 41.589844 L 40 33.453125 L 47 29.589844 L 47 20.410156 L 46.484375 20.125 L 39 16 L 32 19.859375 L 26 16.535156 L 26 8.4375 L 25.484375 8.152344 Z M 18 6.269531 L 24 9.609375 L 24 16.535156 L 18 19.859375 L 12 16.546875 L 12 9.613281 Z M 18 8.507813 L 14 10.738281 L 14 15.347656 L 18 17.59375 L 22 15.347656 L 22 10.738281 Z M 25.007813 18.269531 L 31 21.589844 L 31 28.410156 L 25.023438 31.746094 L 19 28.410156 L 19 21.589844 Z M 11 18.277344 L 17 21.589844 L 17 28.40625 L 10.992188 31.730469 L 5 28.410156 L 5 21.589844 Z M 39 18.28125 L 45 21.589844 L 45 28.410156 L 39 31.722656 L 36.964844 30.597656 L 33 28.40625 L 33 21.589844 Z M 11 20.457031 L 7 22.6875 L 7 27.300781 L 11 29.542969 L 15 27.300781 L 15 22.6875 Z M 25 20.457031 L 21 22.6875 L 21 27.300781 L 25 29.542969 L 29 27.300781 L 29 22.6875 Z M 39 20.457031 L 35 22.6875 L 35 27.300781 L 39 29.542969 L 43 27.300781 L 43 22.6875 Z M 18 30.140625 L 24 33.46875 L 24 40.40625 L 18.015625 43.6875 L 12 40.40625 L 12 33.464844 Z M 32 30.144531 L 38 33.453125 L 38 40.410156 L 32 43.734375 L 26 40.410156 L 26.011719 33.488281 Z M 18 32.40625 L 14 34.636719 L 14 39.25 L 18 41.492188 L 22 39.25 L 22 34.636719 Z M 32 32.40625 L 28 34.636719 L 28 39.25 L 32 41.492188 L 36 39.25 L 36 34.636719 Z " fill="#000000"></path></g></svg>
